<svg width="36" height="36" viewBox="0 0 36 36" fill="none" xmlns="http://www.w3.org/2000/svg">
<path d="M28.35 11.565C28.928 11.027 29.783 11.21 30.16 11.89C30.282 12.1 30.342 12.353 30.342 12.61C30.342 13.008 30.192 13.396 29.905 13.658L18.93 23.827C18.7205 24.027 18.4421 24.1385 18.1525 24.1385C17.8629 24.1385 17.5845 24.027 17.375 23.827L6.432 13.655C5.964 13.217 5.869 12.457 6.182 11.888C6.559 11.207 7.412 11.025 7.991 11.563L18.155 21.009L28.35 11.564V11.565ZM17.957 22.776C18.0123 22.7311 18.0813 22.7066 18.1525 22.7066C18.2237 22.7066 18.2927 22.7311 18.348 22.776L18.154 22.595L17.957 22.776ZM7.436 12.581C7.43 12.591 7.436 12.634 7.409 12.609C7.42046 12.6024 7.42983 12.5927 7.436 12.581V12.581Z" fill="white"/>
</svg>
