<svg width="36" height="36" viewBox="0 0 36 36" fill="none" xmlns="http://www.w3.org/2000/svg">
<path d="M18.84 11.965H25.562C26.6229 11.965 27.6403 12.3864 28.3904 13.1366C29.1406 13.8867 29.562 14.9041 29.562 15.965V26C29.562 27.0609 29.1406 28.0783 28.3904 28.8284C27.6403 29.5786 26.6229 30 25.562 30H10.375C9.31413 30 8.29672 29.5786 7.54657 28.8284C6.79643 28.0783 6.375 27.0609 6.375 26V15.965C6.375 14.9041 6.79643 13.8867 7.54657 13.1366C8.29672 12.3864 9.31413 11.965 10.375 11.965H16.586L12.605 7.984C12.4971 7.87612 12.4114 7.74804 12.353 7.60706C12.2945 7.46608 12.2644 7.31497 12.2644 7.16236C12.2643 7.00974 12.2943 6.85862 12.3527 6.7176C12.4111 6.57659 12.4966 6.44845 12.6045 6.3405C12.7124 6.23256 12.8405 6.14692 12.9814 6.08847C13.1224 6.03002 13.2735 5.99992 13.4261 5.99987C13.5788 5.99983 13.7299 6.02984 13.8709 6.0882C14.0119 6.14656 14.1401 6.23212 14.248 6.34L17.713 9.805L21.177 6.34C21.395 6.122 21.6907 5.99952 21.999 5.99952C22.3073 5.99952 22.603 6.122 22.821 6.34C23.039 6.55801 23.1615 6.85369 23.1615 7.162C23.1615 7.47031 23.039 7.766 22.821 7.984L18.839 11.965H18.84ZM25.268 19.695C25.7236 19.695 26.1606 19.514 26.4828 19.1918C26.805 18.8696 26.986 18.4326 26.986 17.977C26.986 17.5214 26.805 17.0844 26.4828 16.7622C26.1606 16.44 25.7236 16.259 25.268 16.259C24.8124 16.259 24.3754 16.44 24.0532 16.7622C23.731 17.0844 23.55 17.5214 23.55 17.977C23.55 18.4326 23.731 18.8696 24.0532 19.1918C24.3754 19.514 24.8124 19.695 25.268 19.695V19.695ZM25.268 25.706C25.497 25.7115 25.7249 25.6712 25.9381 25.5874C26.1513 25.5035 26.3456 25.3779 26.5095 25.2179C26.6735 25.0578 26.8037 24.8666 26.8927 24.6555C26.9816 24.4444 27.0274 24.2176 27.0274 23.9885C27.0274 23.7594 26.9816 23.5326 26.8927 23.3215C26.8037 23.1104 26.6735 22.9192 26.5095 22.7591C26.3456 22.5991 26.1513 22.4735 25.9381 22.3896C25.7249 22.3058 25.497 22.2655 25.268 22.271C24.8197 22.2818 24.3933 22.4675 24.0801 22.7884C23.7668 23.1094 23.5914 23.54 23.5914 23.9885C23.5914 24.437 23.7668 24.8677 24.0801 25.1886C24.3933 25.5095 24.8197 25.6952 25.268 25.706V25.706Z" fill="white"/>
</svg>
