<svg width="36" height="36" viewBox="0 0 36 36" fill="none" xmlns="http://www.w3.org/2000/svg">
<path d="M21.866 24.337C17.933 27.099 12.468 26.723 8.952 23.207C5.016 19.271 5.016 12.889 8.952 8.952C12.889 5.016 19.272 5.016 23.208 8.952C26.535 12.279 27.05 17.354 24.753 21.222L29.313 25.78C29.4988 25.9657 29.6462 26.1862 29.7468 26.4289C29.8473 26.6716 29.8991 26.9318 29.8991 27.1945C29.8991 27.4572 29.8473 27.7174 29.7468 27.9601C29.6462 28.2028 29.4988 28.4233 29.313 28.609L29.139 28.782C28.7639 29.1569 28.2553 29.3676 27.725 29.3676C27.1947 29.3676 26.6861 29.1569 26.311 28.782L21.866 24.337ZM16.08 22.977C17.9092 22.977 19.6635 22.2504 20.9569 20.9569C22.2504 19.6635 22.977 17.9092 22.977 16.08C22.977 14.2508 22.2504 12.4965 20.9569 11.2031C19.6635 9.90965 17.9092 9.183 16.08 9.183C14.2508 9.183 12.4965 9.90965 11.2031 11.2031C9.90965 12.4965 9.183 14.2508 9.183 16.08C9.183 17.9092 9.90965 19.6635 11.2031 20.9569C12.4965 22.2504 14.2508 22.977 16.08 22.977V22.977Z" fill="white"/>
</svg>
