<svg width="36" height="36" viewBox="0 0 36 36" fill="none" xmlns="http://www.w3.org/2000/svg">
<path d="M19.53 28.827H16.597C16.3192 28.827 16.0528 28.7167 15.8563 28.5204C15.6598 28.3241 15.5493 28.0578 15.549 27.78V24.847C15.549 24.268 16.019 23.799 16.597 23.799H19.53C20.108 23.799 20.577 24.269 20.577 24.847V27.78C20.577 28.358 20.108 28.827 19.53 28.827ZM19.53 20.028H16.597C16.3192 20.028 16.0528 19.9177 15.8563 19.7214C15.6598 19.5251 15.5493 19.2588 15.549 18.981V16.048C15.549 15.469 16.019 15 16.597 15H19.53C20.108 15 20.577 15.469 20.577 16.048V18.981C20.577 19.559 20.108 20.028 19.53 20.028ZM19.53 11.228H16.597C16.3192 11.228 16.0528 11.1177 15.8563 10.9214C15.6598 10.7251 15.5493 10.4588 15.549 10.181V7.248C15.549 6.67 16.019 6.201 16.597 6.201H19.53C20.108 6.201 20.577 6.67 20.577 7.248V10.181C20.577 10.76 20.108 11.229 19.53 11.229V11.228Z" fill="white"/>
</svg>
