<svg width="36" height="36" viewBox="0 0 36 36" fill="none" xmlns="http://www.w3.org/2000/svg">
<path d="M27.85 15.1H20.9V8.15C20.9 7.38087 20.5945 6.64325 20.0506 6.09939C19.5068 5.55554 18.7691 5.25 18 5.25C17.2309 5.25 16.4932 5.55554 15.9494 6.09939C15.4055 6.64325 15.1 7.38087 15.1 8.15V15.1H8.15C7.38087 15.1 6.64325 15.4055 6.09939 15.9494C5.55554 16.4932 5.25 17.2309 5.25 18C5.25 18.7691 5.55554 19.5068 6.09939 20.0506C6.64325 20.5945 7.38087 20.9 8.15 20.9H15.1V27.85C15.1 28.6191 15.4055 29.3568 15.9494 29.9006C16.4932 30.4445 17.2309 30.75 18 30.75C18.7691 30.75 19.5068 30.4445 20.0506 29.9006C20.5945 29.3568 20.9 28.6191 20.9 27.85V20.9H27.85C28.6191 20.9 29.3568 20.5945 29.9006 20.0506C30.4445 19.5068 30.75 18.7691 30.75 18C30.75 17.2309 30.4445 16.4932 29.9006 15.9494C29.3568 15.4055 28.6191 15.1 27.85 15.1V15.1Z" fill="white"/>
</svg>
