<svg width="24" height="24" viewBox="0 0 24 24" fill="none" xmlns="http://www.w3.org/2000/svg">
<path d="M1.393 4.222L2.808 2.808L21.192 21.192L19.778 22.607L16.282 19.11C14.952 19.657 13.509 20 12 20C5.373 20 0 13.375 0 12C0 11.248 1.607 8.926 4.147 6.976L1.393 4.222ZM12 4C18.627 4 24 10.625 24 12C24 12.752 22.393 15.074 19.853 17.024L16.655 13.828C17.0113 12.922 17.0953 11.9316 16.8968 10.9785C16.6983 10.0254 16.2258 9.151 15.5374 8.46259C14.849 7.77417 13.9746 7.30171 13.0215 7.10318C12.0684 6.90465 11.078 6.9887 10.172 7.345L7.718 4.89C9.048 4.343 10.49 4 12 4ZM7.344 10.173C6.9877 11.079 6.90365 12.0694 7.10218 13.0225C7.30071 13.9756 7.77317 14.85 8.46159 15.5384C9.15 16.2268 10.0244 16.6993 10.9775 16.8978C11.9306 17.0963 12.921 17.0123 13.827 16.656L12.166 14.996L12 15C11.2044 15 10.4413 14.6839 9.87868 14.1213C9.31607 13.5587 9 12.7956 9 12L9.005 11.834L7.345 10.174L7.344 10.173ZM12 9C12.7956 9 13.5587 9.31607 14.1213 9.87868C14.6839 10.4413 15 11.2043 15 12L14.995 12.166L11.833 9.005L12 9Z" fill="white"/>
</svg>
