<svg width="36" height="36" viewBox="0 0 36 36" fill="none" xmlns="http://www.w3.org/2000/svg">
<path d="M12.935 26.59C13.2091 26.8529 13.5742 26.9997 13.954 26.9997C14.3338 26.9997 14.6989 26.8529 14.973 26.59L28.078 12.138C28.2114 12.0101 28.3176 11.8566 28.3901 11.6866C28.4626 11.5166 28.5 11.3338 28.5 11.149C28.5 10.9642 28.4626 10.7813 28.3901 10.6113C28.3176 10.4414 28.2114 10.2878 28.078 10.16C27.8039 9.89705 27.4388 9.75024 27.059 9.75024C26.6792 9.75024 26.3141 9.89705 26.04 10.16L13.954 23.63L9.21002 19.018C8.93593 18.755 8.57083 18.6082 8.19102 18.6082C7.81122 18.6082 7.44611 18.755 7.17202 19.018C7.03862 19.1458 6.93247 19.2994 6.85996 19.4693C6.78744 19.6393 6.75006 19.8222 6.75006 20.007C6.75006 20.1918 6.78744 20.3746 6.85996 20.5446C6.93247 20.7146 7.03862 20.8681 7.17202 20.996L12.935 26.59V26.59Z" fill="white"/>
</svg>
