<svg width="36" height="36" viewBox="0 0 36 36" fill="none" xmlns="http://www.w3.org/2000/svg">
<path d="M24.71 20.07C24.9904 19.7952 25.2135 19.4676 25.3664 19.1061C25.5194 18.7446 25.5992 18.3563 25.6012 17.9638C25.6032 17.5712 25.5273 17.1822 25.378 16.8191C25.2287 16.4561 25.0089 16.1263 24.7313 15.8487C24.4537 15.5711 24.1239 15.3513 23.7609 15.202C23.3978 15.0527 23.0088 14.9768 22.6162 14.9788C22.2237 14.9808 21.8354 15.0606 21.4739 15.2136C21.1124 15.3665 20.7848 15.5896 20.51 15.87C19.9623 16.4289 19.6573 17.1813 19.6613 17.9638C19.6652 18.7463 19.9778 19.4956 20.5311 20.0489C21.0844 20.6022 21.8337 20.9148 22.6162 20.9187C23.3987 20.9227 24.1511 20.6177 24.71 20.07V20.07ZM12.448 20.07C12.7284 19.7952 12.9515 19.4676 13.1044 19.1061C13.2574 18.7446 13.3372 18.3563 13.3392 17.9638C13.3412 17.5712 13.2653 17.1822 13.116 16.8191C12.9667 16.4561 12.7469 16.1263 12.4693 15.8487C12.1917 15.5711 11.8619 15.3513 11.4988 15.202C11.1358 15.0527 10.7468 14.9768 10.3542 14.9788C9.96167 14.9808 9.57341 15.0606 9.21189 15.2136C8.85037 15.3665 8.52276 15.5896 8.248 15.87C7.70031 16.4289 7.3953 17.1813 7.39925 17.9638C7.4032 18.7463 7.7158 19.4956 8.26911 20.0489C8.82241 20.6022 9.57173 20.9148 10.3542 20.9187C11.1367 20.9227 11.8891 20.6177 12.448 20.07V20.07ZM18.621 9.76C18.3466 9.47886 18.0191 9.25498 17.6575 9.10134C17.2959 8.9477 16.9074 8.86735 16.5145 8.86495C16.1216 8.86256 15.7322 8.93816 15.3687 9.08738C15.0053 9.2366 14.6751 9.45647 14.3973 9.73425C14.1194 10.012 13.8995 10.3422 13.7502 10.7056C13.6009 11.069 13.5252 11.4584 13.5275 11.8513C13.5298 12.2442 13.61 12.6327 13.7636 12.9943C13.9171 13.3559 14.1409 13.6835 14.422 13.958C14.9809 14.5039 15.7325 14.8074 16.5138 14.8028C17.2951 14.7983 18.043 14.4859 18.5956 13.9335C19.1481 13.3812 19.4606 12.6333 19.4654 11.852C19.4701 11.0707 19.1667 10.3191 18.621 9.76V9.76ZM18.621 22.022C18.3466 21.7409 18.0191 21.517 17.6575 21.3633C17.2959 21.2097 16.9074 21.1294 16.5145 21.127C16.1216 21.1246 15.7322 21.2002 15.3687 21.3494C15.0053 21.4986 14.6751 21.7185 14.3973 21.9963C14.1194 22.274 13.8995 22.6042 13.7502 22.9676C13.6009 23.331 13.5252 23.7204 13.5275 24.1133C13.5298 24.5062 13.61 24.8947 13.7636 25.2563C13.9171 25.6179 14.1409 25.9455 14.422 26.22C14.9809 26.7659 15.7325 27.0694 16.5138 27.0648C17.2951 27.0603 18.043 26.7479 18.5956 26.1955C19.1481 25.6432 19.4606 24.8953 19.4654 24.114C19.4701 23.3327 19.1667 22.5811 18.621 22.022V22.022ZM17.077 17.393C16.9985 17.3144 16.9052 17.252 16.8026 17.2095C16.7 17.1669 16.59 17.145 16.4789 17.1449C16.3677 17.1449 16.2577 17.1667 16.1551 17.2092C16.0524 17.2517 15.9591 17.314 15.8805 17.3925C15.8019 17.471 15.7395 17.5643 15.697 17.6669C15.6544 17.7695 15.6325 17.8795 15.6324 17.9906C15.6324 18.1018 15.6542 18.2118 15.6967 18.3144C15.7392 18.4171 15.8015 18.5104 15.88 18.589C16.0386 18.7477 16.2538 18.837 16.4781 18.8371C16.7025 18.8371 16.9178 18.7481 17.0765 18.5895C17.2352 18.4309 17.3245 18.2157 17.3246 17.9914C17.3246 17.767 17.2356 17.5517 17.077 17.393V17.393ZM35.137 16.749C31.807 23.662 26.972 26.677 23.502 27.989C20.932 28.96 18.74 29.167 17.553 29.197C17.205 29.229 16.855 29.25 16.501 29.25C10.287 29.25 5.25 24.213 5.25 18C5.25 11.787 10.287 6.75 16.5 6.75C22.714 6.75 27.75 11.787 27.75 18C27.7529 20.5677 26.8727 23.0583 25.257 25.054C28.089 23.442 31.101 20.672 33.395 15.911C33.5144 15.6942 33.7123 15.5313 33.9481 15.4559C34.1838 15.3805 34.4395 15.3983 34.6626 15.5056C34.8857 15.6129 35.0591 15.8015 35.1474 16.0328C35.2356 16.2641 35.2319 16.5204 35.137 16.749Z" fill="white"/>
</svg>
